Coordinates
version=1
nRows=49
nColumns=12
inDegrees=yes

Units are S.I. units (second, meters, Newtons, ...)
Angles are in degrees

endheader
time	SC_y	SC_z	SC_x	AC_y	AC_z	AC_x	GH_y	GH_z	GH_yy	EL_x	PS_y
       0.0               -28.1          20.63           44.9           50.3          7.846          3.271         -174.8          21.73          105.8          136.8          19.09
  0.002078               -28.1          20.63           44.9           50.3          7.842          3.271         -174.8          21.73          105.8          136.8          19.11
  0.004156              -28.11          20.63           44.9           50.3          7.838          3.271         -174.8          21.73          105.7          136.8          19.12
  0.006234              -28.11          20.63          44.91          50.31          7.834          3.271         -174.7          21.73          105.7          136.8          19.14
  0.008312              -28.11          20.63          44.91          50.31          7.829          3.271         -174.7          21.73          105.6          136.8          19.16
   0.01039              -28.11          20.63          44.91          50.31          7.824          3.271         -174.6          21.73          105.6          136.7          19.18
   0.01247              -28.11          20.63          44.91          50.32          7.819          3.271         -174.6          21.72          105.5          136.7           19.2
   0.01455              -28.12          20.63          44.91          50.32          7.813          3.271         -174.5          21.72          105.5          136.7          19.22
   0.01662              -28.12          20.62          44.91          50.33          7.807          3.272         -174.5          21.72          105.4          136.7          19.25
    0.0187              -28.12          20.62          44.92          50.33          7.801          3.272         -174.4          21.72          105.4          136.7          19.27
   0.02078              -28.12          20.62          44.92          50.34          7.794          3.272         -174.4          21.72          105.3          136.7           19.3
   0.02286              -28.13          20.62          44.92          50.34          7.786          3.272         -174.3          21.72          105.2          136.7          19.33
   0.02494              -28.13          20.62          44.92          50.35          7.778          3.272         -174.2          21.72          105.1          136.7          19.36
   0.02702              -28.13          20.61          44.93          50.35           7.77          3.273         -174.2          21.71          105.0          136.7           19.4
   0.02909              -28.14          20.61          44.93          50.36           7.76          3.273         -174.1          21.71          104.9          136.7          19.43
   0.03117              -28.14          20.61          44.93          50.37           7.75          3.273         -174.0          21.71          104.8          136.7          19.47
   0.03325              -28.14           20.6          44.94          50.38          7.739          3.273         -173.9          21.71          104.7          136.7          19.52
   0.03533              -28.15           20.6          44.94          50.39          7.727          3.274         -173.8          21.71          104.6          136.6          19.57
   0.03741              -28.15           20.6          44.94           50.4          7.713          3.274         -173.7           21.7          104.4          136.6          19.62
   0.03948              -28.16          20.59          44.95          50.41          7.699          3.275         -173.5           21.7          104.3          136.6          19.68
   0.04156              -28.16          20.59          44.95          50.42          7.683          3.275         -173.4           21.7          104.1          136.6          19.74
   0.04364              -28.17          20.58          44.96          50.43          7.666          3.276         -173.2          21.69          103.9          136.6          19.81
   0.04572              -28.18          20.58          44.96          50.44          7.646          3.276         -173.1          21.69          103.7          136.6          19.89
    0.0478              -28.19          20.57          44.97          50.46          7.625          3.277         -172.9          21.68          103.5          136.5          19.97
   0.04987               -28.2          20.56          44.98          50.48          7.601          3.277         -172.7          21.68          103.3          136.5          20.06
   0.05195              -28.21          20.56          44.99           50.5          7.574          3.278         -172.4          21.67          103.0          136.5          20.17
   0.05403              -28.22          20.55           45.0          50.52          7.545          3.279         -172.2          21.67          102.7          136.5          20.29
   0.05611              -28.23          20.54          45.01          50.54          7.511           3.28         -171.9          21.66          102.3          136.4          20.42
   0.05819              -28.24          20.53          45.02          50.57          7.473          3.281         -171.6          21.65          102.0          136.4          20.57
   0.06026              -28.26          20.51          45.03           50.6          7.431          3.282         -171.2          21.64          101.5          136.3          20.74
   0.06234              -28.28           20.5          45.05          50.64          7.382          3.283         -170.8          21.63          101.0          136.3          20.94
   0.06442               -28.3          20.48          45.07          50.68          7.325          3.285         -170.3          21.62          100.4          136.2          21.16
    0.0665              -28.32          20.47          45.09          50.73           7.26          3.287         -169.7          21.61          99.74          136.2          21.42
   0.06858              -28.35          20.44          45.11          50.78          7.185          3.289         -169.0          21.59          98.95          136.1          21.72
   0.07065              -28.38          20.42          45.14          50.85          7.097          3.291         -168.3          21.58          98.04          136.0          22.07
   0.07273              -28.42          20.39          45.17          50.92          6.993          3.294         -167.3          21.55          96.96          135.9          22.48
   0.07481              -28.47          20.35          45.21          51.02          6.869          3.298         -166.3          21.53          95.67          135.8          22.97
   0.07689              -28.53          20.31          45.26          51.12          6.721          3.302         -165.0           21.5          94.13          135.6          23.56
   0.07897              -28.59          20.26          45.31          51.26          6.541          3.307         -163.4          21.46          92.27          135.4          24.27
   0.08105              -28.68          20.19          45.38          51.42          6.322          3.313         -161.5          21.42          89.99          135.2          25.14
   0.08312              -28.78          20.12          45.46          51.62          6.052          3.321         -159.1          21.36          87.19          134.9          26.21
    0.0852               -28.9          20.02          45.57          51.86          5.715           3.33         -156.1          21.29          83.68          134.6          27.55
   0.08728              -29.06           19.9           45.7          52.17           5.29          3.342         -152.4           21.2          79.27          134.1          29.24
   0.08936              -29.27          19.74          45.87          52.57           4.75          3.357         -147.7          21.09          73.66          133.6          31.38
   0.09144              -29.52          19.54          46.09          53.08          4.059          3.376         -141.6          20.95          66.48          132.9          34.12
   0.09351              -29.86          19.28          46.37          53.73          3.172          3.401         -133.8          20.76          57.27          132.0          37.64
   0.09559              -30.28          18.96          46.72          54.56          2.039          3.433         -123.9          20.53           45.5          130.8          42.14
   0.09767              -30.82          18.55          47.17          55.61         0.6143          3.472         -111.4          20.24          30.71          129.4           47.8
   0.09975              -31.47          18.04          47.71          56.88         -1.122          3.521         -96.16          19.88          12.68          127.6          54.69
